<svg xmlns="http://www.w3.org/2000/svg" viewBox="0 0 800 600" role="img" aria-labelledby="title desc">
  <title id="title">Butter Chicken</title>
  <desc id="desc">Illustration of a creamy Butter Chicken curry dish.</desc>
  <defs>
    <linearGradient id="bg" x1="0" x2="1" y1="0" y2="1">
      <stop offset="0%" stop-color="#fff6df"/>
      <stop offset="100%" stop-color="#f7d98f"/>
    </linearGradient>
  </defs>
  <rect width="800" height="600" fill="url(#bg)"/>
  <ellipse cx="400" cy="430" rx="235" ry="95" fill="#7b1e1e" opacity="0.15"/>
  <ellipse cx="400" cy="310" rx="210" ry="140" fill="#f9fbff" stroke="#dcbd77" stroke-width="8"/>
  <ellipse cx="400" cy="320" rx="165" ry="95" fill="#b03636"/>
  <ellipse cx="400" cy="320" rx="130" ry="68" fill="#a40e21" opacity="0.95"/>
  <g fill="#f3d77a">
    <path d="M280 318c22-35 56-55 98-55s74 20 98 55c-18 12-36 18-54 18-32 0-62-14-93-14-18 0-38 4-49 6z"/>
  </g>
  <g fill="#f8e8ac">
    <path d="M338 302c12-18 28-30 44-30 16 0 30 10 43 28-16 10-27 14-43 14-17 0-29-4-44-12z"/>
  </g>
  <g fill="#eb8b47">
    <path d="M320 288c28 5 53 3 73-8-8 22-25 38-43 38-14 0-25-9-30-30z"/>
  </g>
  <g fill="#ffda7b">
    <ellipse cx="420" cy="262" rx="18" ry="12"/>
    <ellipse cx="355" cy="260" rx="14" ry="10"/>
    <ellipse cx="465" cy="286" rx="12" ry="10"/>
  </g>
  <g fill="#f6a062">
    <path d="M284 360c18 20 47 34 74 34 27 0 58-12 79-34-20 43-53 62-83 62-31 0-57-17-70-62z" opacity="0.85"/>
  </g>
</svg>
